Coordinates
version=1
nRows=39
nColumns=38
inDegrees=no

Units are S.I. units (second, meters, Newtons, ...)
If the header above contains a line with 'inDegrees', this indicates whether rotational values are in degrees (yes) or radians (no).

endheader
time	pelvis_tilt	pelvis_list	pelvis_rotation	pelvis_tx	pelvis_ty	pelvis_tz	hip_flexion_r	hip_adduction_r	hip_rotation_r	knee_angle_r	ankle_angle_r	subtalar_angle_r	mtp_angle_r	hip_flexion_l	hip_adduction_l	hip_rotation_l	knee_angle_l	ankle_angle_l	subtalar_angle_l	mtp_angle_l	lumbar_extension	lumbar_bending	lumbar_rotation	arm_flex_r	arm_add_r	arm_rot_r	elbow_flex_r	pro_sup_r	wrist_flex_r	wrist_dev_r	arm_flex_l	arm_add_l	arm_rot_l	elbow_flex_l	pro_sup_l	wrist_flex_l	wrist_dev_l
1.67	2.25045	1.48479	3.04547	0.73885	1.14619	0.939686	-0.120062	0.040149	-0.302148	0	0.041826	0	0	0.441113	0.0365983	-0.184813	0.605731	0.0579875	0	0	-0.406332	0.0776866	0.362701	0.84566	-0.220148	0.284316	0.890304	1.5708	0	0	-0.134674	-0.341755	0.57934	0.76982	1.31409	0	0
1.68	2.24535	1.48318	3.04152	0.739114	1.1411	0.93923	-0.127779	0.0406637	-0.295334	0	0.043922	0	0	0.439078	0.0443564	-0.198836	0.577166	0.0570224	0	0	-0.408411	0.0736682	0.366674	0.844651	-0.215457	0.285949	0.894372	1.5708	0	0	-0.134296	-0.342346	0.583315	0.767743	1.3132	0	0
1.69	2.24335	1.48171	3.0344	0.739413	1.13602	0.938725	-0.135149	0.0411684	-0.288425	0	0.0462236	0	0	0.437264	0.0520983	-0.213879	0.548524	0.0562746	0	0	-0.409983	0.0697119	0.371042	0.843638	-0.210833	0.286725	0.897478	1.5708	0	0	-0.133335	-0.342559	0.587983	0.764565	1.31717	0	0
1.7	2.24719	1.48027	3.02171	0.739744	1.13098	0.938136	-0.14194	0.0416295	-0.281807	0	0.0485758	0	0	0.436115	0.0601007	-0.227073	0.520212	0.0542436	0	0	-0.410892	0.0659049	0.375174	0.842539	-0.205589	0.286351	0.900008	1.5708	0	0	-0.132574	-0.342146	0.585671	0.76329	1.31271	0	0
1.71	2.22781	1.48045	3.03134	0.739984	1.12646	0.937847	-0.139038	0.0392143	-0.277871	0	0.0532979	0	0	0.432904	0.0662037	-0.239199	0.492341	0.0517952	0	0	-0.417829	0.0654059	0.379846	0.853609	-0.196648	0.281794	0.88936	1.5708	0	0	-0.125884	-0.312752	0.333934	0.756106	0.328345	0	0
1.72	2.23536	1.47956	3.01547	0.740312	1.12133	0.937158	-0.143818	0.0397534	-0.272025	0	0.0553813	0	0	0.432138	0.0746586	-0.248416	0.464971	0.0484485	0	0	-0.415053	0.0603488	0.383471	0.842864	-0.196077	0.288375	0.903132	1.5708	0	0	-0.130317	-0.341949	0.585315	0.76208	1.29104	0	0
1.73	2.23924	1.47968	3.00332	0.740688	1.11646	0.936504	-0.148905	0.0411083	-0.266267	0	0.057259	0	0	0.431141	0.0823759	-0.255086	0.438328	0.046018	0	0	-0.41593	0.0582731	0.387109	0.844214	-0.191782	0.290712	0.903183	1.5708	0	0	-0.12977	-0.341269	0.582573	0.761737	1.28799	0	0
1.74	2.24454	1.48033	2.99006	0.741078	1.1116	0.93582	-0.153997	0.0429446	-0.260653	0	0.0593025	0	0	0.43016	0.0896106	-0.259804	0.412425	0.0438271	0	0	-0.416677	0.0568216	0.390585	0.845881	-0.187436	0.292107	0.902973	1.5708	0	0	-0.129426	-0.34058	0.577779	0.761803	1.28068	0	0
1.75	2.25179	1.48133	2.9751	0.741488	1.10671	0.935097	-0.15898	0.0450303	-0.255084	0	0.0612124	0	0	0.429326	0.0963866	-0.263331	0.3875	0.0415206	0	0	-0.417272	0.0557427	0.393883	0.847629	-0.183451	0.293574	0.903206	1.5708	0	0	-0.129278	-0.339716	0.571009	0.761692	1.27325	0	0
1.76	2.25768	1.48221	2.96174	0.741933	1.10182	0.934374	-0.164164	0.0467785	-0.249442	0	0.0632708	0	0	0.427756	0.103399	-0.264837	0.362439	0.0386777	0	0	-0.417889	0.0544264	0.397011	0.849175	-0.179894	0.294524	0.9041	1.5708	0	0	-0.128625	-0.339378	0.568902	0.761869	1.27454	0	0
1.77	2.27357	1.48381	2.93889	0.742425	1.09692	0.933532	-0.168624	0.0493867	-0.243934	0	0.0656093	0	0	0.42726	0.109311	-0.264724	0.339675	0.0378694	0	0	-0.417534	0.0540882	0.399956	0.850657	-0.176395	0.295177	0.904931	1.5708	0	0	-0.127899	-0.339411	0.569656	0.761882	1.27315	0	0
1.78	2.29887	1.48588	2.90678	0.74294	1.09194	0.932586	-0.172521	0.0526636	-0.238331	0	0.0684264	0	0	0.427602	0.114253	-0.264249	0.318927	0.0389692	0	0	-0.416349	0.0543622	0.402705	0.852273	-0.172521	0.296371	0.905017	1.5708	0	0	-0.1275	-0.339519	0.570697	0.761794	1.26501	0	0
1.79	2.3489	1.48844	2.85019	0.743469	1.08692	0.931391	-0.174487	0.0571198	-0.233744	0	0.0726572	0	0	0.431617	0.117015	-0.266546	0.304079	0.0433495	0	0	-0.413029	0.0557279	0.405307	0.85446	-0.168888	0.300126	0.904143	1.5708	0	0	-0.127941	-0.339373	0.565311	0.763708	1.24801	0	0
1.8	2.42724	1.49163	2.76631	0.744469	1.08181	0.929675	-0.174241	0.0630998	-0.239539	0	0.0834983	0	0	0.447274	0.109897	-0.29647	0.315454	0.057534	0	0	-0.406791	0.0596589	0.407351	0.856937	-0.166126	0.305371	0.902575	1.5708	0	0	-0.130066	-0.33905	0.56002	0.76573	1.2351	0	0
1.81	2.48058	1.49216	2.70808	0.74515	1.07668	0.928481	-0.175432	0.0662013	-0.24298	0	0.0924283	0	0	0.448038	0.115382	-0.290642	0.29618	0.0571738	0	0	-0.402802	0.0596502	0.408071	0.859646	-0.16258	0.307481	0.900607	1.5708	0	0	-0.129868	-0.339679	0.556709	0.766926	1.224	0	0
1.82	2.53623	1.49249	2.64752	0.745882	1.07144	0.927253	-0.176681	0.0691793	-0.246079	0	0.101669	0	0	0.44873	0.120178	-0.285222	0.278716	0.0562201	0	0	-0.398456	0.059672	0.408933	0.861245	-0.15822	0.307705	0.898738	1.5708	0	0	-0.129485	-0.340428	0.554414	0.76788	1.21361	0	0
1.83	2.61094	1.49226	2.56898	0.746595	1.06586	0.925994	-0.179588	0.0713621	-0.257087	0	0.115252	0	0	0.449263	0.119543	-0.286396	0.262268	0.0591652	0	0	-0.392365	0.0597139	0.409312	0.862917	-0.15504	0.309961	0.896733	1.5708	0	0	-0.128669	-0.342183	0.554281	0.768846	1.20422	0	0
1.84	2.67529	1.49076	2.49979	0.747399	1.0602	0.924785	-0.179393	0.0733207	-0.254829	0	0.120281	0	0	0.449505	0.124022	-0.27962	0.246378	0.057767	0	0	-0.385633	0.0575136	0.41049	0.84963	-0.137624	0.0951896	0.974667	0.515418	0	0	-0.128103	-0.342923	0.547625	0.767057	1.22442	0	0
1.85	2.68287	1.49354	2.48679	0.748213	1.05492	0.923952	-0.185247	0.0757594	-0.251855	0.000987845	0.125468	0	0	0.442393	0.127624	-0.270249	0.230619	0.0565386	0	0	-0.386909	0.058858	0.409593	0.869537	-0.150559	0.321824	0.890553	1.5708	0	0	-0.128237	-0.343763	0.545938	0.769166	1.21352	0	0
1.86	2.72555	1.49454	2.43847	0.748944	1.04926	0.92286	-0.187977	0.078752	-0.248182	0.00461245	0.129624	0	0	0.44013	0.128771	-0.265634	0.221857	0.0578783	0	0	-0.383806	0.0585867	0.410681	0.871784	-0.147534	0.325368	0.887452	1.5708	0	0	-0.127678	-0.34544	0.545034	0.770116	1.21187	0	0
1.87	2.77779	1.49343	2.38094	0.749733	1.04315	0.921681	-0.188803	0.0809764	-0.245356	0.00971278	0.134559	0	0	0.438301	0.130484	-0.259392	0.213295	0.0567692	0	0	-0.377504	0.055885	0.41225	0.855257	-0.130037	0.128854	0.970128	0.703905	0	0	-0.126678	-0.348649	0.546334	0.770698	1.20719	0	0
1.88	2.78511	1.49691	2.36741	0.750623	1.03722	0.920822	-0.195777	0.0837916	-0.244854	0.0137727	0.139297	0	0	0.43007	0.130672	-0.252744	0.206594	0.0552055	0	0	-0.378285	0.0566286	0.412218	0.87531	-0.13864	0.326354	0.878329	1.5708	0	0	-0.127735	-0.349725	0.54311	0.772175	1.20425	0	0
1.89	2.82014	1.49829	2.3262	0.751485	1.03086	0.919737	-0.200135	0.0869441	-0.242205	0.0180548	0.143172	0	0	0.425675	0.129289	-0.249541	0.205392	0.0545015	0	0	-0.374763	0.0554756	0.413892	0.876212	-0.134035	0.323937	0.873659	1.5708	0	0	-0.128062	-0.3525	0.54237	0.773501	1.20342	0	0
1.9	2.86578	1.49739	2.27408	0.752338	1.02408	0.918519	-0.201714	0.0890784	-0.241474	0.024486	0.1485	0	0	0.423031	0.127613	-0.248106	0.206932	0.0529855	0	0	-0.367747	0.051847	0.416518	0.859255	-0.116203	0.1251	0.954957	0.73835	0	0	-0.128358	-0.357168	0.54407	0.775805	1.18881	0	0
1.91	2.89618	1.49856	2.23691	0.753231	1.0173	0.917364	-0.205614	0.0916222	-0.239592	0.0317304	0.153768	0	0	0.418985	0.124137	-0.249605	0.214214	0.0539432	0	0	-0.363561	0.0499534	0.418513	0.860016	-0.110362	0.114338	0.948981	0.726736	0	0	-0.129565	-0.361304	0.543683	0.778375	1.17264	0	0
1.92	2.90626	1.50243	2.21952	0.754245	1.01052	0.916326	-0.212704	0.0941737	-0.239933	0.0387943	0.159137	0	0	0.411633	0.119521	-0.25204	0.224581	0.0568197	0	0	-0.36279	0.0497	0.420402	0.87749	-0.120326	0.313549	0.856784	1.5708	0	0	-0.131226	-0.364437	0.545611	0.780896	1.16737	0	0
1.93	2.93483	1.50506	2.18375	0.755167	1.00333	0.915161	-0.217316	0.0971062	-0.240149	0.0483144	0.164938	0	0	0.406401	0.114727	-0.253164	0.237798	0.0614614	0	0	-0.362016	0.0493076	0.423598	0.887252	-0.112438	0.31012	0.840233	1.5708	0	0	-0.12691	-0.338389	0.307279	0.769883	0.330009	0	0
1.94	2.94958	1.5074	2.16224	0.756234	0.996009	0.914026	-0.222125	0.0986606	-0.24125	0.0588382	0.171274	0	0	0.397231	0.111515	-0.250543	0.244157	0.064647	0	0	-0.356815	0.0451651	0.429628	0.882385	-0.112067	0.301972	0.838858	1.5708	0	0	-0.130724	-0.372542	0.553784	0.782385	1.18814	0	0
1.95	2.95872	1.5088	2.1468	0.757488	0.988581	0.91292	-0.226259	0.0988383	-0.241542	0.0699411	0.177075	0	0	0.385672	0.11063	-0.24405	0.242668	0.0674349	0	0	-0.352211	0.0418389	0.431568	0.879612	-0.108257	0.298349	0.835247	1.5708	0	0	-0.132247	-0.376076	0.558004	0.781588	1.19915	0	0
1.96	2.94353	1.50935	2.15638	0.759051	0.981084	0.911917	-0.228364	0.096017	-0.246856	0.0862067	0.186134	0	0	0.372368	0.11263	-0.238165	0.234778	0.0697124	0	0	-0.348987	0.0387844	0.428658	0.879733	-0.10107	0.300353	0.828929	1.5708	0	0	-0.131778	-0.348027	0.302383	0.768736	0.300789	0	0
1.97	3.0586	1.51072	2.037	0.761127	0.973407	0.909869	-0.228321	0.100984	-0.246907	0.100441	0.192784	0	0	0.366059	0.110394	-0.227651	0.225377	0.0676723	0	0	-0.33829	0.0431697	0.429975	0.874933	-0.0995481	0.302571	0.827579	1.5708	0	0	-0.138768	-0.350153	0.303593	0.773243	0.339913	0	0
1.98	2.91687	1.50754	2.17621	0.762919	0.966015	0.909822	-0.227462	0.0878555	-0.259166	0.124032	0.203062	0	0	0.349617	0.119619	-0.232343	0.214135	0.0577621	0	0	-0.333479	0.0261271	0.431771	0.850473	-0.0751308	-0.033741	1.00726	1.5708	0	0	-0.137625	-0.385063	0.555063	0.782872	1.17881	0	0
1.99	2.99169	1.50869	2.1	0.7655	0.958455	0.908089	-0.225091	0.0893944	-0.261578	0.144812	0.209946	0	0	0.340885	0.12045	-0.223215	0.199632	0.0382396	0	0	-0.323886	0.0294002	0.429634	0.844348	-0.0732274	-0.0291227	1.00411	1.5708	0	0	-0.144065	-0.386199	0.548455	0.783182	1.18121	0	0
2	2.79278	1.50704	2.29897	0.767779	0.951549	0.908719	-0.225047	0.0726782	-0.273717	0.174998	0.217465	0	0	0.321661	0.132075	-0.22664	0.191338	0.0255731	0	0	-0.326595	0.0147155	0.421691	0.842622	-0.071574	-0.0322787	1.0008	1.5708	0	0	-0.142726	-0.387217	0.543555	0.778804	1.17946	0	0
2.01	2.67825	1.50681	2.41444	0.77015	0.944425	0.908866	-0.221978	0.06131	-0.285598	0.209915	0.223046	0	0	0.310615	0.13919	-0.223328	0.195353	0.0260069	0	0	-0.327114	0.00634368	0.41464	0.839673	-0.0695731	-0.0334943	0.996967	1.5708	0	0	-0.143273	-0.388543	0.544513	0.77608	1.18478	0	0
2.02	2.55394	1.50664	2.54105	0.772454	0.937339	0.909408	-0.218131	0.049788	-0.29654	0.24836	0.225417	0	0	0.304196	0.143728	-0.222991	0.214043	0.0384024	0	0	-0.32964	-0.00186785	0.406755	0.837806	-0.0683613	-0.0376914	0.993957	1.5708	0	0	-0.143035	-0.389832	0.545307	0.773006	1.19382	0	0
2.03	2.43526	1.50667	2.66316	0.774641	0.930207	0.910214	-0.213131	0.0391586	-0.305783	0.289448	0.223753	0	0	0.300399	0.145188	-0.224357	0.240072	0.0542092	0	0	-0.333158	-0.00889437	0.398862	0.837233	-0.0677354	-0.0503185	0.99271	1.5708	0	0	-0.142257	-0.391466	0.542801	0.771389	1.19947	0	0
2.04	2.38045	1.50618	2.72293	0.776712	0.922958	0.910858	-0.201838	0.0295826	-0.316197	0.335528	0.218175	0	0	0.303501	0.142991	-0.229466	0.273007	0.0726101	0	0	-0.330856	-0.0136217	0.385739	0.832586	-0.0719432	0.0274484	0.885469	0.44476	0	0	-0.146958	-0.392491	0.531999	0.769296	1.21846	0	0
2.05	2.5381	1.51713	2.57137	0.779757	0.915445	0.909646	-0.188546	0.0354707	-0.306395	0.372951	0.206274	0	0	0.308959	0.131398	-0.207797	0.297864	0.0949064	0	0	-0.320005	0.00129938	0.381495	0.825377	-0.0733198	0.0320173	0.887526	0.484533	0	0	-0.153182	-0.393521	0.534621	0.770924	1.22337	0	0
